# xmcd
#
# Track frame offsets: 
#        150
#        9829
#        23883
#        36937
#        51386
#        73538
#        92071
#        105227
#        122285
#        142336
#        156341
#        174953
#        192151
#        194064
#        206496
#
# Disc length: 3129 seconds
#
# Revision: 0
# Processed by: cddbd v1.5.2PL0 Copyright (c) Steve Scherf et al.
# Submitted via: ExactAudioCopy v0.99pb1
#
DISCID=cb0c370f
DTITLE=NTL - Шаг в Сторону (Переиздание)
DYEAR=2007
DGENRE=Rap
TTITLE0=Интро
TTITLE1=Там, Где Клен Шумит
TTITLE2=Дождь
TTITLE3=Где Я Ангелом Не Стал
TTITLE4=Рифмотераны
TTITLE5=Книга Жизни
TTITLE6=Drag Racing
TTITLE7=Разбитые Сердца
TTITLE8=Есть Через Чо?
TTITLE9=Синдром Феникса
TTITLE10=Про Кардера Джакса
TTITLE11=Когда Хоронят Молодых
TTITLE12=Диалог (Скит)
TTITLE13=Шапка-Невидимка
TTITLE14=Шаг в Сторону
EXTD=
EXTT0=
EXTT1=
EXTT2=
EXTT3=
EXTT4=
EXTT5=
EXTT6=
EXTT7=
EXTT8=
EXTT9=
EXTT10=
EXTT11=
EXTT12=
EXTT13=
EXTT14=
PLAYORDER=
